# xmcd
#
# Track frame offsets:
#	150
#	23557
#	42709
#	60946
#	78856
#	104128
#	121214
#	140245
#	161021
#	179463
#
# Disc length: 2704 seconds
#
# Revision: 0
# Processed by: cddbd v1.5.2PL0 Copyright (c) Steve Scherf et al.
# Submitted via: EasyCDDAExtractor 12.0.1.1
#
DISCID=870a8e0a
DTITLE=Lissette - Mis Recuerdos
DYEAR=2007
DGENRE=Latin
TTITLE0=Maquina
TTITLE1=Fuego
TTITLE2=Caricatura
TTITLE3=No Soy Una Señora
TTITLE4=Eclipse Total Del Amor (Total Eclipse Of The Heart)
TTITLE5=A Veces
TTITLE6=Eva
TTITLE7=Vivo
TTITLE8=Hoy Vine Con Ella
TTITLE9=Luna Llena
EXTD=
EXTT0=
EXTT1=
EXTT2=
EXTT3=
EXTT4=
EXTT5=
EXTT6=
EXTT7=
EXTT8=
EXTT9=
PLAYORDER=
